#!OML:ASF I:\Actors\actors\Patient Classification 1\Patient 1\Session 1\Subject1.ASF
:FULLY-SPECIFIED
:DEGREES
1312
root 0.396227 17.5201 9.70311 9.34439 -1.6624 -8.53924
lowerback -6.4513 0.128831 7.01763
upperback -9.55571 0.114274 2.12414
thorax -6.43136 -0.32976 -1.68417
lowerneck -7.59763 -3.56118 -4.53727
upperneck 25.2432 -6.66168 9.22918
head 9.66136 -2.60724 3.27807
rclavicle -8.10048e-015 2.28602e-014
rhumerus -23.5961 32.2708 -76.7975
rradius 108.235
rwrist 7.34258
rhand -18.4526 -29.4735
rfingers 7.12502
rthumb 7.83353 300.692
lclavicle -8.10048e-015 2.28602e-014
lhumerus -30.5457 -35.4145 83.3226
lradius 108.642
lwrist 2.90654
lhand -46.021 -48.5335
lfingers 7.12502
lthumb -18.7659 -19.4187
rfemur -1.51685 26.255 26.9516
rtibia 0.752699
rfoot -11.5455 -24.7551
rtoes 2.08499
lfemur 9.91231 -47.6549 -15.3484
ltibia -5.41797
lfoot -24.1999 55.4675
ltoes 8.69357
1313
root 0.395187 17.5177 9.7056 9.30635 -1.74554 -8.55009
lowerback -6.28443 0.259025 7.19192
upperback -9.69339 0.302191 1.98397
thorax -6.66495 -0.263086 -1.92472
lowerneck -7.37514 -3.58907 -4.57676
upperneck 25.2063 -6.75666 9.46426
head 9.62305 -2.63824 3.36036
rclavicle -1.76918e-014 4.81059e-014
rhumerus -26.4859 30.2833 -79.4661
rradius 107.837
rwrist 8.11384
rhand -19.1878 -28.6283
rfingers 7.12502
rthumb 7.12387 301.512
lclavicle -1.76918e-014 4.81059e-014
lhumerus -33.0588 -33.5818 85.5929
lradius 108.682
lwrist 1.49909
lhand -45.4709 -49.1642
lfingers 7.12502
lthumb -18.2367 -19.9991
rfemur -1.50823 26.2033 26.9809
rtibia 0.825745
rfoot -11.516 -24.6375
rtoes 1.83878
lfemur 9.94023 -47.4466 -15.3475
ltibia -5.39296
lfoot -24.212 55.3071
ltoes 8.77349
1314
root 0.394908 17.5175 9.70748 9.28044 -1.82302 -8.563
lowerback -6.6534 0.31905 7.1428
upperback -9.39118 0.331332 1.99587
thorax -6.12026 -0.222245 -1.88878
lowerneck -7.69553 -3.59115 -4.56717
upperneck 25.0155 -6.77557 9.62684
head 9.62441 -2.62322 3.40563
rclavicle -2.28602e-015 -1.19271e-015
rhumerus -28.3345 28.508 -81.4144
rradius 107.192
rwrist 8.62328
rhand -20.1264 -28.2649
rfingers 7.12502
rthumb 6.21776 301.846
lclavicle -2.28602e-015 -1.19271e-015
lhumerus -34.5207 -31.4514 87.2228
lradius 108.459
lwrist 0.918645
lhand -44.7213 -49.6331
lfingers 7.12502
lthumb -17.5154 -20.4021
rfemur -1.53654 26.1183 26.9903
rtibia 0.920831
rfoot -11.5235 -24.4832
rtoes 1.83385
lfemur 9.87223 -47.1955 -15.2936
ltibia -5.29541
lfoot -24.2565 55.0996
ltoes 8.82075
1315
root 0.396176 17.5181 9.7105 9.23337 -1.88009 -8.5485
lowerback -6.46676 0.383399 7.22883
upperback -9.45434 0.433189 1.91354
thorax -6.28719 -0.186593 -2.02121
lowerneck -7.73237 -3.62388 -4.62107
upperneck 25.0362 -6.86531 9.82418
head 9.65597 -2.64818 3.47494
rclavicle -2.93207e-015 -1.78906e-014
rhumerus -30.982 26.3578 -83.6126
rradius 106.465
rwrist 9.19492
rhand -20.4927 -27.5022
rfingers 7.12502
rthumb 5.86417 302.599
lclavicle -2.93207e-015 -1.78906e-014
lhumerus -36.6192 -29.5693 88.9529
lradius 108.08
lwrist 0.711616
lhand -44.4271 -50.5431
lfingers 7.12502
lthumb -17.2323 -21.2871
rfemur -1.51127 26.0127 26.981
rtibia 0.972607
rfoot -11.5231 -24.346
rtoes 1.87446
lfemur 9.89382 -47.0433 -15.3507
ltibia -5.22427
lfoot -24.2802 54.9867
ltoes 8.77596
1316
root 0.398239 17.518 9.7137 9.2122 -1.85384 -8.51592
lowerback -6.3385 0.365963 7.26631
upperback -9.50348 0.423943 1.9042
thorax -6.41533 -0.199023 -2.05149
lowerneck -7.75843 -3.60689 -4.70537
upperneck 25.0134 -6.84558 9.91037
head 9.65703 -2.63775 3.52163
rclavicle -5.46658e-016 8.94531e-015
rhumerus -33.3009 24.38 -85.4304
rradius 105.582
rwrist 9.6471
rhand -20.4543 -26.5963
rfingers 7.12502
rthumb 5.90119 303.506
lclavicle -5.46658e-016 8.94531e-015
lhumerus -38.5493 -27.5397 90.3641
lradius 107.521
lwrist 0.612569
lhand -44.6723 -51.0669
lfingers 7.12502
lthumb -17.4683 -21.8317
rfemur -1.48923 25.9764 26.9558
rtibia 1.00259
rfoot -11.5761 -24.3399
rtoes 1.96441
lfemur 9.83598 -46.8803 -15.3432
ltibia -5.19284
lfoot -24.0148 54.8231
ltoes 8.54284
1317
root 0.399657 17.5171 9.71609 9.232 -1.76255 -8.4624
lowerback -6.31083 0.343397 7.28684
upperback -9.53871 0.396862 1.87055
thorax -6.47246 -0.217693 -2.09807
lowerneck -7.77673 -3.60676 -4.69252
upperneck 24.9928 -6.84224 9.89917
head 9.65211 -2.63599 3.51506
rclavicle -8.84592e-015 -5.76476e-015
rhumerus -34.9987 23.0418 -86.7832
rradius 104.467
rwrist 9.79615
rhand -20.5909 -26.4145
rfingers 7.12502
rthumb 5.76932 303.684
lclavicle -8.84592e-015 -5.76476e-015
lhumerus -40.2937 -25.4883 91.4397
lradius 106.773
lwrist 0.429677
lhand -45.0059 -50.7248
lfingers 7.12502
lthumb -17.7894 -21.5185
rfemur -1.49871 26.0143 26.8982
rtibia 1.00023
rfoot -11.6149 -24.4551
rtoes 2.00532
lfemur 9.60945 -46.6104 -15.2019
ltibia -5.15599
lfoot -23.5806 54.5025
ltoes 8.28178
1318
root 0.399988 17.5159 9.71808 9.26443 -1.71458 -8.40577
lowerback -5.56127 0.438672 7.55301
upperback -10.1068 0.613452 1.60617
thorax -7.51166 -0.185607 -2.52054
lowerneck -7.33575 -3.70813 -4.63396
upperneck 25.2951 -7.057 9.96238
head 9.69436 -2.73162 3.51642
rclavicle 1.6201e-014 -1.23246e-014
rhumerus -37.7049 21.1636 -88.361
rradius 103.225
rwrist 10.3934
rhand -20.8683 -26.1474
rfingers 7.12502
rthumb 5.50147 303.944
lclavicle 1.6201e-014 -1.23246e-014
lhumerus -42.9162 -23.7461 92.603
lradius 106.007
lwrist 0.467441
lhand -45.049 -50.0516
lfingers 7.12502
lthumb -17.8308 -20.849
rfemur -1.51187 26.1048 26.8288
rtibia 0.973307
rfoot -11.623 -24.5867
rtoes 2.09879
lfemur 9.42608 -46.4271 -15.1083
ltibia -5.12241
lfoot -23.36 54.2979
ltoes 8.17613
